<?xml version="1.0" encoding="UTF-8"?>
<svg version="1.1" xmlns="http://www.w3.org/2000/svg" width="500" height="500">
<path d="M0 0 C3.49181039 2.3278736 4.05555452 3.77126017 5.75 7.546875 C6.27029785 8.69067627 6.7905957 9.83447754 7.32666016 11.01293945 C7.7355246 11.92639633 7.7355246 11.92639633 8.15264893 12.85830688 C9.59083957 16.06903667 11.05788193 19.26653451 12.5234375 22.46484375 C12.81809906 23.10934982 13.11276062 23.7538559 13.41635132 24.41789246 C16.02926892 30.11239928 18.79280746 35.72383924 21.625 41.3125 C25.76995846 49.51048942 29.79879084 57.75479751 33.73486328 66.05517578 C36.18217225 71.21345647 38.6602681 76.35292979 41.1953125 81.46875 C46.85443075 92.94229533 52.10662453 104.42524471 56.6875 116.375 C61.23251053 128.22892293 66.17829642 139.71601203 72 151 C72.4434375 151.87108398 72.886875 152.74216797 73.34375 153.63964844 C80.2749984 167.65121174 80.2749984 167.65121174 93 176 C92.68546875 175.22140625 92.3709375 174.4428125 92.046875 173.640625 C86.26632467 158.52761992 83.11590525 143.20840382 84 127 C88.16144331 128.38714777 89.88325887 131.37169982 92.4375 134.75 C93.39440899 135.99488565 94.35143821 137.2396789 95.30859375 138.484375 C95.76347168 139.08056641 96.21834961 139.67675781 96.68701172 140.29101562 C98.42540917 142.5537122 100.20775874 144.77982407 102 147 C101.97643433 146.13387085 101.97643433 146.13387085 101.95239258 145.25024414 C101.54488589 127.88908364 102.53097311 111.36899517 109 95 C109.66 94.34 110.32 93.68 111 93 C114.4498235 101.19092172 117.25262948 109.55521358 120 118 C120.391875 116.9275 120.78375 115.855 121.1875 114.75 C128.9340579 94.22524146 139.24318698 76.48119644 156 62 C156.66 62 157.32 62 158 62 C157.40006789 70.40346281 156.14884704 78.60832107 154.671875 86.8984375 C154.43844109 88.22242445 154.2052308 89.54645085 153.972229 90.87051392 C153.48440541 93.63607483 152.99314532 96.4009978 152.49951172 99.16552734 C152.00207216 101.95309493 151.50953143 104.74144905 151.02197266 107.53076172 C148.57367916 121.53704064 146.04315111 135.47941326 142.61657715 149.28674316 C141.09413449 155.44752152 139.9614538 161.56402106 139.25 167.875 C139.13422607 168.82189697 139.01845215 169.76879395 138.89916992 170.74438477 C137.98331298 178.48025739 137.35650268 186.21840692 137 194 C137.71285156 193.60167969 138.42570313 193.20335937 139.16015625 192.79296875 C142.0937799 191.17019712 145.04447068 189.58245643 148 188 C149.134375 187.38125 150.26875 186.7625 151.4375 186.125 C157.84253044 184.10235881 164.37175785 183.66198581 170.4375 186.75 C171.283125 187.4925 172.12875 188.235 173 189 C174.175625 189.928125 174.175625 189.928125 175.375 190.875 C176.24125 191.57625 177.1075 192.2775 178 193 C178.67804688 193.48855469 179.35609375 193.97710937 180.0546875 194.48046875 C181.14136719 195.26357422 181.14136719 195.26357422 182.25 196.0625 C182.93578125 196.54847656 183.6215625 197.03445313 184.328125 197.53515625 C186 199 186 199 187 202 C185.96875 201.95875 184.9375 201.9175 183.875 201.875 C180.04794452 201.9984534 177.47107433 202.42223894 174 204 C168.00732576 210.64534173 168.69904474 221.56611608 168.01293945 230.02539062 C165.85193008 256.41791315 160.79396645 280.03105575 140.2578125 298.4609375 C131.38318348 305.50772965 115.8385314 316 104 316 C104.061875 317.03125 104.12375 318.0625 104.1875 319.125 C104.13466424 334.10393924 97.88621305 354.33509023 87.125 365.1875 C86.42375 365.785625 85.7225 366.38375 85 367 C83.74566542 363.23699626 83.89304578 359.72789091 83.9375 355.8125 C83.94201172 355.06291016 83.94652344 354.31332031 83.95117188 353.54101562 C83.96293646 351.69397617 83.98087135 349.84697787 84 348 C83.34 348 82.68 348 82 348 C81.67322266 349.04607422 81.67322266 349.04607422 81.33984375 350.11328125 C79.6629008 353.72628662 77.2769958 356.3352753 74.5625 359.1875 C74.02898926 359.75412354 73.49547852 360.32074707 72.94580078 360.90454102 C65.1873683 369.05376013 57.2669828 377.05738206 47 382 C46.34 382 45.68 382 45 382 C47.43303126 373.12157015 50.70836494 364.58594775 54 356 C52.86046875 356.65226562 51.7209375 357.30453125 50.546875 357.9765625 C33.5408242 367.45986837 14.75522511 374.6477123 -5 374 C-3.42248776 369.90231577 -0.45920084 367.45725756 2.75 364.625 C7.75438835 360.11745122 12.58165173 355.48118686 17.3125 350.6875 C20.82669655 347.13424623 24.31591874 343.6162679 28.125 340.375 C29.41887265 339.25253783 30.7103014 338.12725565 32 337 C32.92296875 336.20335937 33.8459375 335.40671875 34.796875 334.5859375 C41.54720717 328.49033434 45.84854187 322.26700491 49.85449219 314.12939453 C53.69603605 306.36633752 58.10054511 299.00111993 62.625 291.625 C62.98081146 291.04339111 63.33662292 290.46178223 63.70321655 289.86254883 C66.12635243 285.90272026 68.56217713 281.9507974 71 278 C72.50845185 275.54987242 74.01589091 273.09912215 75.5234375 270.6484375 C76.68225572 268.76560287 77.84109592 266.88278178 79 265 C78.31711914 264.96036133 77.63423828 264.92072266 76.93066406 264.87988281 C65.17561249 264.16709744 53.49587457 263.41358355 41.9375 261.0625 C41.16116211 260.90491211 40.38482422 260.74732422 39.58496094 260.58496094 C34.25626174 259.42836203 29.1395829 257.81330127 24 256 C26.30804885 253.37855272 28.427267 252.21615741 31.66796875 250.95703125 C32.56064453 250.60576172 33.45332031 250.25449219 34.37304688 249.89257812 C35.30181641 249.53615234 36.23058594 249.17972656 37.1875 248.8125 C38.12787109 248.44447266 39.06824219 248.07644531 40.03710938 247.69726562 C42.35543127 246.7911195 44.67634016 245.89234882 47 245 C47 244.67 47 244.34 47 244 C45.8140625 243.70867187 44.628125 243.41734375 43.40625 243.1171875 C20.19500924 237.29446955 -5.8361692 228.28245473 -24 212 C-24 211.34 -24 210.68 -24 210 C-22.68805664 209.91435791 -21.37611328 209.82871582 -20.02441406 209.74047852 C-15.15632836 209.42172876 -10.28857107 209.09818521 -5.42089844 208.77319336 C-3.31421416 208.63321272 -1.2074431 208.49453176 0.89941406 208.35717773 C3.92797222 208.15950794 6.9561874 207.95716424 9.984375 207.75390625 C10.92617615 207.6934462 11.86797729 207.63298615 12.83831787 207.57069397 C13.71892883 207.51070724 14.59953979 207.45072052 15.50683594 207.38891602 C16.27960876 207.33784195 17.05238159 207.28676788 17.84857178 207.23414612 C19.97494611 207.00272669 21.94083978 206.56976533 24 206 C23.34515625 205.59910156 22.6903125 205.19820312 22.015625 204.78515625 C9.97226499 197.28357184 -0.77609712 188.78324686 -11 179 C-11.93972656 178.113125 -12.87945312 177.22625 -13.84765625 176.3125 C-18.79959188 171.52075356 -23.33960936 166.56060239 -27.5625 161.125 C-27.98031738 160.58955566 -28.39813477 160.05411133 -28.82861328 159.50244141 C-31.11728055 156.47021875 -32.77236901 153.59662702 -34 150 C-24.80185679 151.6640776 -15.87459949 154.13327942 -6.875 156.625 C-5.3308164 157.04979641 -3.78654618 157.47427805 -2.2421875 157.8984375 C1.50621651 158.92866695 5.25342396 159.96314353 9 161 C8.26539551 160.14567383 7.53079102 159.29134766 6.77392578 158.41113281 C-8.99243053 139.98976329 -32.55645742 108.68154747 -31 83 C-25.7937558 85.83488394 -21.13174128 89.01458305 -16.4375 92.625 C-9.06058036 98.23243232 -1.56841999 103.65480338 6 109 C5.31126276 105.74716869 4.15890743 102.72257214 2.98120117 99.61962891 C-2.08700062 86.0846772 -5.56352084 71.4947453 -6 57 C-6.02578125 56.27216309 -6.0515625 55.54432617 -6.078125 54.79443359 C-6.41936889 43.86823093 -6.02351384 33.16633762 -4.6875 22.3125 C-4.56987305 21.34610596 -4.45224609 20.37971191 -4.33105469 19.3840332 C-3.43637479 12.74543975 -1.90738215 6.4180094 0 0 Z " fill="#4D1FB6" transform="translate(174,59)"/>
<path d="M0 0 C0.99 0.495 0.99 0.495 2 1 C-2.85118615 22.6670766 -10.94991265 40.61137204 -29.6484375 53.8984375 C-50.54275093 67 -50.54275093 67 -60 67 C-59.938125 68.03125 -59.87625 69.0625 -59.8125 70.125 C-59.86533576 85.10393924 -66.11378695 105.33509023 -76.875 116.1875 C-77.57625 116.785625 -78.2775 117.38375 -79 118 C-80.25433458 114.23699626 -80.10695422 110.72789091 -80.0625 106.8125 C-80.05798828 106.06291016 -80.05347656 105.31332031 -80.04882812 104.54101562 C-80.03706354 102.69397617 -80.01912865 100.84697787 -80 99 C-80.66 99 -81.32 99 -82 99 C-82.21785156 99.69738281 -82.43570313 100.39476562 -82.66015625 101.11328125 C-84.3370992 104.72628662 -86.7230042 107.3352753 -89.4375 110.1875 C-89.97101074 110.75412354 -90.50452148 111.32074707 -91.05419922 111.90454102 C-98.8126317 120.05376013 -106.7330172 128.05738206 -117 133 C-117.66 133 -118.32 133 -119 133 C-116.56696874 124.12157015 -113.29163506 115.58594775 -110 107 C-111.70929688 107.97839844 -111.70929688 107.97839844 -113.453125 108.9765625 C-130.4591758 118.45986837 -149.24477489 125.6477123 -169 125 C-167.42248776 120.90231577 -164.45920084 118.45725756 -161.25 115.625 C-156.24561165 111.11745122 -151.41834827 106.48118686 -146.6875 101.6875 C-143.17330345 98.13424623 -139.68408126 94.6162679 -135.875 91.375 C-134.58112735 90.25253783 -133.2896986 89.12725565 -132 88 C-131.07703125 87.20335937 -130.1540625 86.40671875 -129.203125 85.5859375 C-123.00648406 79.98575935 -118.72244811 74.33161963 -114.9375 66.875 C-114.51952148 66.07562012 -114.10154297 65.27624023 -113.67089844 64.45263672 C-111.53815875 60.30362375 -109.67504128 56.18903788 -108.05859375 51.8125 C-105.90987902 46.63394654 -103.86463638 42.08076764 -99 39 C-90.49090349 36.96886139 -81.57966983 37.68397074 -72.90046692 37.96720886 C-63.77819608 38.19505404 -55.55418322 35.93508313 -47 33 C-46.32243652 32.77683105 -45.64487305 32.55366211 -44.94677734 32.32373047 C-26.85792952 26.24400283 -11.87088951 14.83861189 0 0 Z " fill="#190C8A" transform="translate(338,308)"/>
<path d="M0 0 C0 4.12520761 -2.18426426 6.33680156 -4.5 9.5625 C-16.90353042 27.53103685 -25.17692785 49.93815029 -23 72 C-22.27208633 75.90290912 -21.3390005 79.75271274 -20.24731445 83.56958008 C-18.73197542 89.28615586 -19.39215596 93.37069492 -21 99 C-21.34006373 100.41376259 -21.67353904 101.82912824 -22 103.24609375 C-22.16395264 103.93251953 -22.32790527 104.61894531 -22.49682617 105.32617188 C-23.19146631 108.24089671 -23.87070542 111.15914424 -24.54931641 114.07763672 C-24.9128348 115.62820217 -25.28849636 117.1759179 -25.66796875 118.72265625 C-26.54728474 122.57710153 -27.03764442 126.21993789 -27.09375 130.171875 C-27.3037911 141.95568664 -27.3037911 141.95568664 -29.6171875 145.42578125 C-31.5625 147.0625 -31.5625 147.0625 -35 149 C-50.5257108 139.16620281 -61.60604009 127.0597856 -72 112 C-69 111 -69 111 -65.8125 112.4375 C-64.884375 112.953125 -63.95625 113.46875 -63 114 C-63.31453125 113.22140625 -63.6290625 112.4428125 -63.953125 111.640625 C-69.73367533 96.52761992 -72.88409475 81.20840382 -72 65 C-67.83855669 66.38714777 -66.11674113 69.37169982 -63.5625 72.75 C-62.60559101 73.99488565 -61.64856179 75.2396789 -60.69140625 76.484375 C-60.23652832 77.08056641 -59.78165039 77.67675781 -59.31298828 78.29101562 C-57.57459083 80.5537122 -55.79224126 82.77982407 -54 85 C-54.01571045 84.42258057 -54.0314209 83.84516113 -54.04760742 83.25024414 C-54.45511411 65.88908364 -53.46902689 49.36899517 -47 33 C-46.34 32.34 -45.68 31.68 -45 31 C-41.5501765 39.19092172 -38.74737052 47.55521358 -36 56 C-35.4121875 54.39125 -35.4121875 54.39125 -34.8125 52.75 C-26.83599683 31.61599394 -16.346242 15.49256979 0 0 Z " fill="#26948F" transform="translate(330,121)"/>
<path d="M0 0 C0.33 0 0.66 0 1 0 C0.40006789 8.40346281 -0.85115296 16.60832107 -2.328125 24.8984375 C-2.56155891 26.22242445 -2.7947692 27.54645085 -3.027771 28.87051392 C-3.51559459 31.63607483 -4.00685468 34.4009978 -4.50048828 37.16552734 C-4.99792784 39.95309493 -5.49046857 42.74144905 -5.97802734 45.53076172 C-8.42632084 59.53704064 -10.95684889 73.47941326 -14.38342285 87.28674316 C-15.90586551 93.44752152 -17.0385462 99.56402106 -17.75 105.875 C-17.86577393 106.82189697 -17.98154785 107.76879395 -18.10083008 108.74438477 C-19.01668702 116.48025739 -19.64349732 124.21840692 -20 132 C-19.28714844 131.60167969 -18.57429688 131.20335937 -17.83984375 130.79296875 C-14.9062201 129.17019712 -11.95552932 127.58245643 -9 126 C-7.865625 125.38125 -6.73125 124.7625 -5.5625 124.125 C0.84253044 122.10235881 7.37175785 121.66198581 13.4375 124.75 C14.283125 125.4925 15.12875 126.235 16 127 C16.78375 127.61875 17.5675 128.2375 18.375 128.875 C19.24125 129.57625 20.1075 130.2775 21 131 C21.67804688 131.48855469 22.35609375 131.97710937 23.0546875 132.48046875 C23.77914062 133.00253906 24.50359375 133.52460938 25.25 134.0625 C25.93578125 134.54847656 26.6215625 135.03445313 27.328125 135.53515625 C29 137 29 137 30 140 C29.030625 139.938125 28.06125 139.87625 27.0625 139.8125 C22.40487136 139.84090017 18.13096774 140.81637208 14 143 C13.38125 143.94875 12.7625 144.8975 12.125 145.875 C8.6056144 151.05056706 2.85379907 153.02941357 -3.109375 154.53125 C-5.08738375 154.82549924 -7.00131128 154.93988906 -9 155 C-9.83015625 155.061875 -10.6603125 155.12375 -11.515625 155.1875 C-19.00605627 155.52991972 -28.01796174 154.53490261 -33.84375 149.36328125 C-34.2253125 148.91339844 -34.606875 148.46351563 -35 148 C-34.19691406 147.41992188 -33.39382813 146.83984375 -32.56640625 146.2421875 C-28.48380214 142.14376491 -29.12789963 136.57735294 -28.9375 131.125 C-28.31879686 120.16567878 -26.73099315 110.60394171 -23.00390625 100.2265625 C-20.76704522 93.76451953 -21.2434878 89.54426259 -23 83 C-29.10551986 56.63709303 -20.87360481 32.24885857 -7 10 C-2.55673759 3.16548463 -2.55673759 3.16548463 0 0 Z " fill="#9423C5" transform="translate(331,121)"/>
<path d="M0 0 C3.49181039 2.3278736 4.05555452 3.77126017 5.75 7.546875 C6.53044678 9.2625769 6.53044678 9.2625769 7.32666016 11.01293945 C7.59923645 11.62191071 7.87181274 12.23088196 8.15264893 12.85830688 C9.59083957 16.06903667 11.05788193 19.26653451 12.5234375 22.46484375 C12.81809906 23.10934982 13.11276062 23.7538559 13.41635132 24.41789246 C16.02926892 30.11239928 18.79280746 35.72383924 21.625 41.3125 C25.76464801 49.49998629 29.78483969 57.73529708 33.72167969 66.0222168 C36.25753306 71.3596918 38.81519352 76.68515579 41.40625 81.99609375 C41.9832666 83.18243408 42.5602832 84.36877441 43.15478516 85.59106445 C44.26487331 87.87158191 45.37884996 90.1502126 46.49755859 92.42651367 C56.59435748 113.21692756 56.59435748 113.21692756 55 118 C55 117.34 55 116.68 55 116 C54.34 116 53.68 116 53 116 C53.3609375 117.20398438 53.721875 118.40796875 54.09375 119.6484375 C54.5626424 121.22391596 55.03138463 122.79943912 55.5 124.375 C55.73847656 125.1690625 55.97695312 125.963125 56.22265625 126.78125 C56.56103516 127.92207031 56.56103516 127.92207031 56.90625 129.0859375 C57.11572266 129.7876709 57.32519531 130.4894043 57.54101562 131.21240234 C58 133 58 133 58 135 C33.32976995 123.31696154 18.53338177 96.66660511 9.72265625 72.13671875 C7.33216745 65.1930412 5.51650258 58.18461866 4 51 C3.84007568 50.32211426 3.68015137 49.64422852 3.51538086 48.94580078 C1.79876099 41.2484609 1.16814069 33.46542057 0.51245117 25.62158203 C0.31167811 23.24025177 0.09675635 20.86047008 -0.11914062 18.48046875 C-0.25085216 16.95059396 -0.38174066 15.42064804 -0.51171875 13.890625 C-0.57622726 13.18738098 -0.64073578 12.48413696 -0.7071991 11.75958252 C-1.03680491 7.65813739 -0.85183276 4.0251352 0 0 Z " fill="#F47C9E" transform="translate(174,59)"/>
<path d="M0 0 C5.20633964 2.83493591 9.86785112 6.01503114 14.5625 9.625 C15.96263566 10.68739301 17.36369655 11.74856763 18.765625 12.80859375 C19.46751953 13.33952637 20.16941406 13.87045898 20.89257812 14.41748047 C24.17147014 16.8796883 27.48358292 19.29350344 30.8125 21.6875 C31.39265869 22.10918457 31.97281738 22.53086914 32.57055664 22.96533203 C35.04707664 24.73802231 37.08913916 26.02971305 40 27 C41.1593931 28.16572858 42.31593086 29.33448006 43.45556641 30.51953125 C46.58628552 33.52058732 50.18132254 35.96052881 53.6875 38.5 C54.52039551 39.10875977 55.35329102 39.71751953 56.21142578 40.34472656 C61.16122239 43.95696735 66.13232737 47.53947315 71.10693359 51.11743164 C74.74459536 53.73584329 78.37488398 56.36425102 82 59 C82.66950684 59.48549316 83.33901367 59.97098633 84.02880859 60.47119141 C85.88252355 61.82310011 87.72427114 63.189639 89.5625 64.5625 C90.59503906 65.32691406 91.62757813 66.09132813 92.69140625 66.87890625 C95.00924227 69.00849163 95.83579725 69.89328396 96 73 C95.67 73.66 95.34 74.32 95 75 C95.66 75.33 96.32 75.66 97 76 C99.16145284 79.872603 100.69045524 83.76916309 102 88 C101.67 88.33 101.34 88.66 101 89 C95.30963388 88.55651373 90.29226785 87.36803638 84.9375 85.4375 C84.2050708 85.17428955 83.4726416 84.9110791 82.71801758 84.63989258 C64.87300241 77.99778442 50.68022671 67.03622174 37 54 C36.29230469 53.34515625 35.58460938 52.6903125 34.85546875 52.015625 C21.95269351 39.71725675 11.13611139 23.80118475 3 8 C2.01 8.495 2.01 8.495 1 9 C0.67 6.03 0.34 3.06 0 0 Z " fill="#6E3AD1" transform="translate(143,142)"/>
<path d="M0 0 C8.94691086 1.53603749 17.6020277 4.05790707 26.3125 6.5625 C28.47598629 7.18225999 30.63978961 7.8008538 32.804245 8.41722107 C34.75473677 8.97297846 36.70418282 9.53240212 38.65356445 10.09204102 C41.42971415 10.84526935 44.17208978 11.48335932 47 12 C47 12.66 47 13.32 47 14 C48.09441406 14.10054687 49.18882812 14.20109375 50.31640625 14.3046875 C55.70130271 14.98237454 60.75732495 16.54883256 65.9375 18.125 C68.0568827 18.75788158 70.17668955 19.38934414 72.296875 20.01953125 C73.39064453 20.34518066 74.48441406 20.67083008 75.61132812 21.00634766 C82.34744266 22.9815628 89.11857642 24.83418322 95.88842773 26.68994141 C96.87786377 26.96370605 97.8672998 27.2374707 98.88671875 27.51953125 C99.75514404 27.75776611 100.62356934 27.99600098 101.51831055 28.24145508 C108.49205114 30.37302537 108.49205114 30.37302537 110.40966797 32.73999023 C110.76689941 33.42262939 111.12413086 34.10526855 111.4921875 34.80859375 C111.88664062 35.55560547 112.28109375 36.30261719 112.6875 37.07226562 C113.079375 37.85279297 113.47125 38.63332031 113.875 39.4375 C114.29007812 40.21416016 114.70515625 40.99082031 115.1328125 41.79101562 C117.34995196 46.08118049 117.34995196 46.08118049 118 48 C117.67 48.99 117.34 49.98 117 51 C92.9693144 51.67586303 70.45905902 46.82657577 49 36 C48.26571777 35.63277832 47.53143555 35.26555664 46.77490234 34.88720703 C31.47814621 27.12002896 17.09431824 17.23644752 4.59375 5.453125 C2.85503153 3.7945168 2.85503153 3.7945168 0 2 C0 1.34 0 0.68 0 0 Z " fill="#25948F" transform="translate(140,209)"/>
<path d="M0 0 C1.78125 2.01171875 1.78125 2.01171875 3.5 4.6875 C5.4112823 7.60385317 7.2352006 10.2763607 9.5 12.9375 C9.995 13.618125 10.49 14.29875 11 15 C10.67 15.99 10.34 16.98 10 18 C-21.58608394 32.53708093 -63.48052922 25.94462909 -94.90234375 14.63818359 C-100.77813767 12.43476087 -106.47775576 9.99121563 -112 7 C-112 6.67 -112 6.34 -112 6 C-85.85091759 4.02995043 -59.69391233 2.52053911 -33.5 1.3125 C-32.42075256 1.2625419 -32.42075256 1.2625419 -31.31970215 1.21157455 C-26.49451555 0.98835811 -21.66919119 0.76842724 -16.84375 0.55078125 C-15.60395386 0.49467682 -14.36415771 0.43857239 -13.08679199 0.38076782 C-11.94633423 0.3302829 -10.80587646 0.27979797 -9.63085938 0.2277832 C-8.63550171 0.18353714 -7.64014404 0.13929108 -6.61462402 0.09370422 C-4.41094287 0.01472758 -2.2050959 0 0 0 Z " fill="#57BB52" transform="translate(262,263)"/>
<path d="M0 0 C0.66 0 1.32 0 2 0 C2.10489746 1.43327637 2.10489746 1.43327637 2.21191406 2.89550781 C5.50361214 47.18810694 13.52466943 89.72972959 48.3515625 120.80078125 C50.64500092 122.70521463 52.9580229 124.35469642 55.4375 126 C60.99630547 130.00963018 62.41681278 136.18126176 63.75 142.625 C63.8325 143.40875 63.915 144.1925 64 145 C59.33505046 142.02524957 54.84467483 138.94515973 50.5625 135.4375 C45.93570034 131.67283692 41.15375121 128.16783243 36.3125 124.6875 C35.54075439 124.12949707 34.76900879 123.57149414 33.97387695 122.99658203 C30.24979397 120.30965906 26.51069806 117.65498671 22.71484375 115.0703125 C6.18700548 103.68508945 1.89682025 88.19526434 -1.75341797 69.11914062 C-2.85696859 63.07450869 -3.81475298 57.15174476 -4 51 C-4.02578125 50.27216309 -4.0515625 49.54432617 -4.078125 48.79443359 C-4.59065584 32.38383671 -3.32914864 16.09656828 0 0 Z " fill="#043781" transform="translate(172,65)"/>
<path d="M0 0 C0 4.12520761 -2.18426426 6.33680156 -4.5 9.5625 C-16.90353042 27.53103685 -25.17692785 49.93815029 -23 72 C-22.27208633 75.90290912 -21.3390005 79.75271274 -20.24731445 83.56958008 C-18.73020146 89.29284807 -19.39962913 93.36417467 -21 99 C-21.36389165 100.53087693 -21.72071003 102.06345306 -22.0703125 103.59765625 C-22.42129329 105.08607479 -22.77285391 106.57435673 -23.125 108.0625 C-23.30675781 108.83271484 -23.48851562 109.60292969 -23.67578125 110.39648438 C-24.11666659 112.26444594 -24.5582568 114.13224112 -25 116 C-28.78842672 112.46237505 -31.4491663 108.99120322 -34.125 104.5 C-34.78757812 103.3965625 -35.45015625 102.293125 -36.1328125 101.15625 C-37.05707031 99.59390625 -37.05707031 99.59390625 -38 98 C-38.52078125 97.21109375 -39.0415625 96.4221875 -39.578125 95.609375 C-41.47911915 92.12073738 -42.53332095 88.55739915 -43.625 84.75 C-43.8415625 84.03714844 -44.058125 83.32429688 -44.28125 82.58984375 C-47.23342455 72.47591241 -47.18640521 62.36371572 -47.18530273 51.90454102 C-47.18751773 49.54360655 -47.20580849 47.18311949 -47.22460938 44.82226562 C-47.22753879 43.32031409 -47.22952661 41.81836035 -47.23046875 40.31640625 C-47.23765427 39.61125381 -47.24483978 38.90610138 -47.25224304 38.17958069 C-47.22886407 33.22886407 -47.22886407 33.22886407 -45 31 C-41.5501765 39.19092172 -38.74737052 47.55521358 -36 56 C-35.608125 54.9275 -35.21625 53.855 -34.8125 52.75 C-26.83599683 31.61599394 -16.346242 15.49256979 0 0 Z " fill="#6E3BD1" transform="translate(330,121)"/>
<path d="M0 0 C1.67578125 1.453125 1.67578125 1.453125 3.3125 3.25 C6.60894384 6.71055251 10.04007243 9.33311001 14 12 C-6.19261713 29.37858009 -36.38861354 31.05016055 -61.625 31.8125 C-62.46743256 31.84009399 -63.30986511 31.86768799 -64.17782593 31.89611816 C-66.58978397 31.97076722 -69.00153112 32.02952724 -71.4140625 32.08203125 C-72.14962875 32.10467545 -72.88519501 32.12731964 -73.64305115 32.15065002 C-75.42918642 32.17870437 -77.21637051 32.09865149 -79 32 C-79.66 31.34 -80.32 30.68 -81 30 C-71.11140829 24.74159594 -60.76919768 20.61315615 -50.18925476 16.97584534 C-43.31940142 14.6113814 -36.54681704 12.07194072 -29.82421875 9.31640625 C-29.07077682 9.00826492 -28.3173349 8.7001236 -27.5410614 8.38264465 C-24.46477414 7.12130247 -21.39049392 5.85549272 -18.3215332 4.57641602 C-16.03473237 3.6255746 -13.74259511 2.68875388 -11.44921875 1.75390625 C-10.75761154 1.46133438 -10.06600433 1.16876251 -9.35343933 0.86732483 C-3.35074561 -1.55958892 -3.35074561 -1.55958892 0 0 Z " fill="#25B5D9" transform="translate(279,284)"/>
<path d="M0 0 C2.54334215 3.16244517 4.55634036 6.55630452 6.61523438 10.04052734 C14.94001368 24.07464929 24.78185446 36.19794467 36 48 C36.59039062 48.64324219 37.18078125 49.28648437 37.7890625 49.94921875 C52.28591484 65.26732135 73.45812567 77.69094696 94.25 81.375 C99.57924107 82.44084821 99.57924107 82.44084821 101.47265625 84.95703125 C102.3125 87.1875 102.3125 87.1875 103 91 C96.62218882 90.41549062 90.95766086 88.89807146 84.875 86.9375 C75.16695236 83.88861811 65.39861074 81.15965884 55.5625 78.5625 C54.88499695 78.38347137 54.2074939 78.20444275 53.50946045 78.01998901 C49.67442441 77.00775352 45.83789354 76.0013431 42 75 C42 74.34 42 73.68 42 73 C41.16855469 72.92652344 41.16855469 72.92652344 40.3203125 72.8515625 C36.91773053 71.60280346 35.10544785 69.10684172 32.875 66.375 C32.39562988 65.79524414 31.91625977 65.21548828 31.42236328 64.61816406 C19.44985376 49.87004809 10.30552663 33.49466978 3.4375 15.8125 C3.09058105 14.92739746 2.74366211 14.04229492 2.38623047 13.13037109 C0.69393837 8.60342466 -0.44235808 4.91419611 0 0 Z " fill="#023782" transform="translate(145,148)"/>
<path d="M0 0 C3.64535176 2.24329339 6.74681908 4.63846141 9.875 7.5625 C37.77621059 32.70630452 74.83380632 47.38135646 112.3046875 47.16796875 C114.96938351 47.17810657 114.96938351 47.17810657 117 46 C117.99 48.475 117.99 48.475 119 51 C115.06108823 52.31297059 111.195633 52.34907833 107.08203125 52.53515625 C106.19198898 52.57813339 105.30194672 52.62111053 104.38493347 52.66539001 C102.49280471 52.75565752 100.60057252 52.84377851 98.70825195 52.92993164 C95.86833258 53.05994397 93.02891871 53.19835854 90.18945312 53.33789062 C84.79416512 53.59674066 79.39807588 53.80901109 74 54 C73.20603821 54.03139069 72.41207642 54.06278137 71.59405518 54.09512329 C69.41553387 54.17491314 67.23808725 54.22897189 65.05859375 54.2734375 C63.84872803 54.3048584 62.6388623 54.3362793 61.39233398 54.36865234 C54.86285665 53.65907978 50.11036128 49.87325228 45 46 C43.48986328 44.93652344 43.48986328 44.93652344 41.94921875 43.8515625 C34.43435054 38.45177393 27.67171207 32.38415749 21 26 C19.59041016 24.6696875 19.59041016 24.6696875 18.15234375 23.3125 C13.14291976 18.46512489 8.57518516 13.44251445 4.3125 7.9375 C3.8779248 7.37691895 3.44334961 6.81633789 2.99560547 6.23876953 C0 2.26135957 0 2.26135957 0 0 Z " fill="#023980" transform="translate(142,212)"/>
<path d="M0 0 C4.29586709 1.37364076 8.4104567 2.99282127 12.5625 4.75 C18.86501791 7.33639166 25.26342728 9.3813297 31.8125 11.25 C32.67109619 11.49588867 33.52969238 11.74177734 34.41430664 11.99511719 C61.84210912 19.63223934 92.4264305 20.0001827 119.49609375 10.76953125 C122 10 122 10 125 10 C125.99 11.485 125.99 11.485 127 13 C120.09416152 15.89989877 113.17363197 18.76230612 106.24194336 21.59985352 C103.88851132 22.56828619 101.53849699 23.54507003 99.19213867 24.53051758 C95.80744146 25.95032373 92.41135335 27.33906384 89.01171875 28.72265625 C87.97480392 29.16529312 86.9378891 29.60792999 85.86955261 30.0639801 C75.57325147 34.18669922 66.96776392 32.72510553 56.625 29.5 C55.77703857 29.23864258 54.92907715 28.97728516 54.05541992 28.70800781 C34.86319806 22.58706431 15.60854946 13.95177508 0 1 C0 0.67 0 0.34 0 0 Z " fill="#023A80" transform="translate(150,270)"/>
<path d="M0 0 C0.33 0 0.66 0 1 0 C1.3125 2.6875 1.3125 2.6875 1 6 C-0.60307667 7.72791804 -2.28128913 9.38705595 -4 11 C-4.804375 11.85078125 -5.60875 12.7015625 -6.4375 13.578125 C-22.83953905 30.68025108 -47.14173855 44.30626625 -71.41333008 45.11352539 C-72.68587646 45.10828857 -73.95842285 45.10305176 -75.26953125 45.09765625 C-75.95053391 45.0962413 -76.63153656 45.09482635 -77.33317566 45.09336853 C-79.49299647 45.08780298 -81.65271089 45.07525703 -83.8125 45.0625 C-85.28320162 45.05748054 -86.75390488 45.05291841 -88.22460938 45.04882812 C-91.8164404 45.03784488 -95.4082098 45.02060422 -99 45 C-97.7430222 41.67345636 -96.32402667 38.67643313 -94.46875 35.64453125 C-93.98792969 34.85755859 -93.50710937 34.07058594 -93.01171875 33.25976562 C-92.51285156 32.45216797 -92.01398438 31.64457031 -91.5 30.8125 C-91.00113281 29.99330078 -90.50226563 29.17410156 -89.98828125 28.33007812 C-86.2633762 22.2633762 -86.2633762 22.2633762 -84 20 C-82.12060547 19.58935547 -82.12060547 19.58935547 -79.8671875 19.3671875 C-78.65869141 19.24150391 -78.65869141 19.24150391 -77.42578125 19.11328125 C-76.58402344 19.03464844 -75.74226563 18.95601563 -74.875 18.875 C-73.60076172 18.74544922 -73.60076172 18.74544922 -72.30078125 18.61328125 C-70.20130273 18.40097443 -68.10073758 18.19946397 -66 18 C-68.440193 21.17388132 -70.87249651 23.92661093 -73.9375 26.5 C-76.36156578 28.56293866 -78.67711122 30.63526041 -80.875 32.9375 C-83 35 -83 35 -85 35 C-85 35.66 -85 36.32 -85 37 C-54.96199859 34.35776839 -28.48649192 25.67462048 -5.41015625 5.765625 C-3 4 -3 4 0 4 C0 2.68 0 1.36 0 0 Z " fill="#4317B8" transform="translate(339,302)"/>
<path d="M0 0 C0.33 0 0.66 0 1 0 C0.40580363 8.28593119 -0.8184207 16.37043514 -2.28515625 24.54296875 C-2.50570175 25.79257889 -2.72624725 27.04218903 -2.95347595 28.32966614 C-3.53381661 31.61315727 -4.11805555 34.89590343 -4.70428467 38.17834473 C-5.30425152 41.54343399 -5.89895807 44.90945249 -6.49414062 48.27539062 C-7.65797561 54.85111636 -8.82696884 61.42590887 -10 68 C-10.66 68 -11.32 68 -12 68 C-12.16822266 69.25683594 -12.16822266 69.25683594 -12.33984375 70.5390625 C-13.06419756 74.33656234 -14.22820885 77.74846508 -15.5625 81.375 C-15.79646484 82.01566406 -16.03042969 82.65632813 -16.27148438 83.31640625 C-16.84299619 84.8793161 -17.42084229 86.43990727 -18 88 C-18.99 88 -19.98 88 -21 88 C-21.4839655 86.45983306 -21.96192387 84.91777806 -22.4375 83.375 C-22.70433594 82.51648438 -22.97117187 81.65796875 -23.24609375 80.7734375 C-29.10525998 59.2189918 -22.15320476 36.52419982 -11.5625 17.625 C-8.06523806 11.54354344 -4.4146427 5.46574811 0 0 Z " fill="#F37B9F" transform="translate(331,121)"/>
<path d="M0 0 C-4.98613126 17.25201415 -23.38340405 29.62467655 -38.29541016 38.11865234 C-59.89628821 50 -59.89628821 50 -69 50 C-67.42248776 45.90231577 -64.45920084 43.45725756 -61.25 40.625 C-56.24561178 36.11745134 -51.41834415 31.48119121 -46.6875 26.6875 C-42.58137562 22.53568391 -38.47498805 18.49854282 -33.95703125 14.7890625 C-31.83599952 12.92606734 -31.83599952 12.92606734 -29.63671875 10.2109375 C-23.814204 3.41451884 -19.33275753 0.83933314 -10.5703125 0.15112305 C-7.05016005 -0.02828948 -3.52409024 -0.03401632 0 0 Z " fill="#24B3D9" transform="translate(238,383)"/>
<path d="M0 0 C1.010625 0.53625 2.02125 1.0725 3.0625 1.625 C4.5744351 2.17112602 6.09620688 2.6905161 7.625 3.1875 C8.388125 3.44273437 9.15125 3.69796875 9.9375 3.9609375 C12.28933045 4.69588452 14.62996779 5.2326561 17.0625 5.625 C12.40520086 17.88548026 -8.90119267 26.42529881 -20.15039062 31.53808594 C-38.46668024 39.625 -38.46668024 39.625 -44.9375 39.625 C-44.9375 38.965 -44.9375 38.305 -44.9375 37.625 C-43.46435547 36.15771484 -43.46435547 36.15771484 -41.4296875 34.4609375 C-37.18110456 30.8478663 -33.11321891 27.08208345 -29.0625 23.25 C-23.79985896 18.29463087 -18.53409452 13.35270491 -13.109375 8.57421875 C-11.62466284 7.24171629 -10.17755587 5.86642268 -8.765625 4.45703125 C-3.69402032 -0.47157706 -3.69402032 -0.47157706 0 0 Z " fill="#2CBDDB" transform="translate(298.9375,299.375)"/>
<path d="M0 0 C2.6875 0.875 2.6875 0.875 5 2 C1.58536348 5.52134391 -1.97299646 8.78035252 -5.70703125 11.9609375 C-7.38214572 13.45056229 -8.99752954 15.00812545 -10.57421875 16.6015625 C-16.85948717 22.8240679 -21.19942647 25.42311443 -30 26 C-31.24910156 26.16886719 -32.49820313 26.33773438 -33.78515625 26.51171875 C-51.4025456 28.74362706 -72.2766176 27.17827087 -89 21 C-89.33 20.34 -89.66 19.68 -90 19 C-89.07477539 18.98541748 -88.14955078 18.97083496 -87.19628906 18.95581055 C-56.85064813 18.4224058 -26.19973297 17.46648865 0 0 Z " fill="#033B84" transform="translate(293,296)"/>
<path d="M0 0 C0 4.12520761 -2.18426426 6.33680156 -4.5 9.5625 C-16.90353042 27.53103685 -25.17692785 49.93815029 -23 72 C-22.27208633 75.90290912 -21.3390005 79.75271274 -20.24731445 83.56958008 C-18.78956965 89.06888315 -18.9830463 93.62850415 -21 99 C-21.99 99.99 -21.99 99.99 -23 101 C-23.25692627 100.16863525 -23.51385254 99.33727051 -23.77856445 98.48071289 C-24.74506381 95.35498046 -25.71245337 92.22952629 -26.68041992 89.10424805 C-27.09678486 87.75930405 -27.51280905 86.41425452 -27.9284668 85.0690918 C-30.75587525 75.89843669 -30.75587525 75.89843669 -33.76171875 66.78515625 C-37.44159058 55.53658904 -32.35099804 44.45537954 -27.34643555 34.30786133 C-20.45962369 21.04828214 -10.78268106 10.21956232 0 0 Z " fill="#053782" transform="translate(330,121)"/>
<path d="M0 0 C-1.29458876 20.9812661 -11.96026969 37.63495965 -25.953125 52.76171875 C-27.69556303 54.66709469 -29.33019905 56.6064191 -30.9375 58.625 C-31.618125 59.40875 -32.29875 60.1925 -33 61 C-33.66 61 -34.32 61 -35 61 C-31.42939819 48.2523251 -26.97217838 35.78565254 -21.55859375 23.70703125 C-20.3385905 20.9134791 -19.32246985 18.08723919 -18.34765625 15.19921875 C-18.06075928 14.3786499 -17.7738623 13.55808105 -17.47827148 12.71264648 C-16.92132013 11.10521634 -16.38958149 9.48876415 -15.88696289 7.86352539 C-13.99919707 2.52062586 -13.99919707 2.52062586 -11.16699219 1.04492188 C-7.48186531 0.05230675 -3.81354284 -0.23834643 0 0 Z " fill="#23B2D8" transform="translate(254,380)"/>
<path d="M0 0 C0.33 0 0.66 0 1 0 C0.37666975 6.83562157 -0.88486045 13.32072042 -2.4375 20 C-5.71462572 34.6044804 -7.17426606 49.07159959 -8 64 C-7.28714844 63.60167969 -6.57429688 63.20335937 -5.83984375 62.79296875 C-2.9062201 61.17019712 0.04447068 59.58245643 3 58 C4.7015625 57.071875 4.7015625 57.071875 6.4375 56.125 C12.04219755 54.35509551 18.46177247 53.63811619 24.0703125 55.796875 C26.90751772 57.57869471 27.93294771 58.79884312 29 62 C27.25976562 62.03867188 27.25976562 62.03867188 25.484375 62.078125 C11.06861236 62.53770867 0.37125878 65.78023195 -11.96875 73.1953125 C-14.28397164 74.57370477 -16.56979503 75.84446136 -19 77 C-18.505 76.01 -18.505 76.01 -18 75 C-17.82523708 73.29163315 -17.70216483 71.57783928 -17.60546875 69.86328125 C-16.83654412 57.74080606 -15.80538485 46.59111478 -12 35 C-11.41189221 33.12649206 -10.8280578 31.25163314 -10.25 29.375 C-10.00765625 28.64023438 -9.7653125 27.90546875 -9.515625 27.1484375 C-8.92961624 24.70673435 -8.91220813 22.50206842 -9 20 C-8.34 20 -7.68 20 -7 20 C-6.20752336 17.79195441 -5.4159987 15.58357503 -4.625 13.375 C-3.96371094 11.53035156 -3.96371094 11.53035156 -3.2890625 9.6484375 C-2.15654289 6.44306381 -1.06307102 3.22895402 0 0 Z " fill="#962CBD" transform="translate(319,189)"/>
<path d="M0 0 C0.83144531 0.07025391 1.66289062 0.14050781 2.51953125 0.21289062 C4.55692186 0.38852775 6.59141774 0.5972046 8.625 0.8125 C-0.11104371 12.99001547 -14.73462093 19.60793081 -28.375 24.8125 C-28.99874512 25.05339355 -29.62249023 25.29428711 -30.26513672 25.54248047 C-42.52547497 30.19050663 -55.23377425 33.09147574 -68.375 32.8125 C-65.91541825 31.17277883 -64.30894476 30.33991077 -61.59375 29.4375 C-43.89656697 23.359142 -25.98976515 15.56354601 -12.63671875 2.0390625 C-8.19951375 -0.98992774 -5.17971769 -0.57414734 0 0 Z " fill="#023883" transform="translate(325.375,306.1875)"/>
<path d="M0 0 C1.65 0 3.3 0 5 0 C3.02827243 6.94055543 0.72514362 13.67020977 -1.9375 20.375 C-2.43926758 21.68791016 -2.43926758 21.68791016 -2.95117188 23.02734375 C-7.40449219 34.26790178 -16.30873075 38.32595896 -27 43 C-38.954108 47.48449175 -52.12822379 51.57207894 -65 51 C-62.25922548 48.25922548 -59.04293916 47.60100825 -55.4375 46.4375 C-31.9670405 38.45373721 -9.35832447 23.71664894 2 1 C1.01 0.505 1.01 0.505 0 0 Z " fill="#023982" transform="translate(236,382)"/>
<path d="M0 0 C1.05483389 3.42756411 1.08703995 6.51947373 1.02734375 10.09375 C1.01509766 11.29 1.00285156 12.48625 0.99023438 13.71875 C0.95551305 16.20839766 0.91656055 18.69799049 0.87304688 21.1875 C0.8019019 29.02181735 1.4063041 36.32911661 3 44 C3.24878906 45.22332031 3.49757813 46.44664062 3.75390625 47.70703125 C6.51317932 58.30423941 11.52935195 67.99624248 18.796875 76.2265625 C21 79 21 79 20.8125 82.375 C20.544375 83.24125 20.27625 84.1075 20 85 C16.21073349 81.3606685 12.9452157 77.53989371 9.75 73.375 C7.00402325 69.80781412 4.27000154 66.25875174 1.28515625 62.88671875 C0.46917969 61.95472656 -0.34679687 61.02273437 -1.1875 60.0625 C-1.92355469 59.24910156 -2.65960938 58.43570313 -3.41796875 57.59765625 C-5.45661767 54.25024506 -5.28801408 51.84805701 -5 48 C-5.66 48 -6.32 48 -7 48 C-7.44762776 31.96829481 -6.83386664 16.18211077 -1 1 C-0.67 0.67 -0.34 0.34 0 0 Z " fill="#043984" transform="translate(283,156)"/>
<path d="M0 0 C4.75481646 0.57634139 7.97048212 2.55068521 12 5 C12 5.66 12 6.32 12 7 C12.69762451 7.25434814 13.39524902 7.50869629 14.11401367 7.77075195 C19.22443613 9.94746941 23.81626477 13.04619938 28.4855957 16.02954102 C29.70591489 16.8030241 30.93291816 17.56605885 32.16625977 18.31860352 C33.95630255 19.4115795 35.72312363 20.53535753 37.48828125 21.66796875 C39.07443237 22.66219849 39.07443237 22.66219849 40.69262695 23.67651367 C43 26 43 26 43.53198242 29.5871582 C43 33 43 33 41.6875 34.77734375 C39.34375 36.38867188 39.34375 36.38867188 37 38 C21.59537283 28.24289572 10.10368284 16.14540033 0 1 C0 0.67 0 0.34 0 0 Z " fill="#43AD5E" transform="translate(258,232)"/>
<path d="M0 0 C0.66 0 1.32 0 2 0 C2.29390625 1.31097656 2.29390625 1.31097656 2.59375 2.6484375 C8.85902712 28.41168911 21.57118078 48.35304206 43 64 C43.33 62.68 43.66 61.36 44 60 C44 64.29 44 68.58 44 73 C43.67 73 43.34 73 43 73 C43 71.02 43 69.04 43 67 C42.32195312 66.76667969 41.64390625 66.53335938 40.9453125 66.29296875 C37.27947713 64.68369619 34.16655408 62.57336543 30.875 60.3125 C25.43896975 56.61154334 19.95217425 53.08268236 14.26953125 49.765625 C3.65147015 41.50510242 1.58277222 22.611931 0 10 C-0.18455046 6.61390021 -0.16148064 3.39109354 0 0 Z " fill="#053C81" transform="translate(258,191)"/>
<path d="M0 0 C1.85625 0.0309375 1.85625 0.0309375 3.75 0.0625 C4.37418371 16.15256891 1.82845255 31.09706896 -4.25 46.0625 C-4.91 46.7225 -5.57 47.3825 -6.25 48.0625 C-7.14875162 45.36624513 -7.43276234 43.52289213 -7.56640625 40.73046875 C-7.60838135 39.85922363 -7.65035645 38.98797852 -7.69360352 38.09033203 C-7.73283936 37.15302246 -7.7720752 36.21571289 -7.8125 35.25 C-7.8549585 34.28690918 -7.89741699 33.32381836 -7.94116211 32.33154297 C-8.36058616 21.90923511 -8.34907327 11.49110484 -8.25 1.0625 C-5.40105645 0.30852135 -2.95234746 -0.04920579 0 0 Z " fill="#29B9D9" transform="translate(265.25,377.9375)"/>
<path d="M0 0 C0.28636149 3.99825475 0.52246159 7.99800091 0.75 12 C0.83121094 13.12535156 0.91242188 14.25070312 0.99609375 15.41015625 C1.46435643 24.30714726 0.06802553 29.49480981 -5.62890625 36.2734375 C-6.5958042 37.31755528 -7.57406818 38.35124411 -8.5625 39.375 C-9.08553711 39.92736328 -9.60857422 40.47972656 -10.14746094 41.04882812 C-17.3492008 48.56708033 -24.7165908 56.10511151 -34 61 C-34.66 60.67 -35.32 60.34 -36 60 C-35.32195312 59.36835938 -34.64390625 58.73671875 -33.9453125 58.0859375 C-18.0457236 42.80295316 -7.12987137 24.92616716 -3.52734375 2.93359375 C-3.35332031 2.29550781 -3.17929688 1.65742188 -3 1 C-1 0 -1 0 0 0 Z " fill="#023C84" transform="translate(257,379)"/>
<path d="M0 0 C-0.05654758 17.58629736 -6.30863389 33.46295084 -16 48 C-16.66 47.67 -17.32 47.34 -18 47 C-17.59007812 45.92363281 -17.18015625 44.84726562 -16.7578125 43.73828125 C-11.59315461 29.87332077 -9.77324044 16.71191677 -9 2 C-9.99 1.67 -10.98 1.34 -12 1 C-7.94863773 0.36449219 -4.09744212 -0.05661405 0 0 Z " fill="#013882" transform="translate(278,376)"/>
<path d="M0 0 C2.85644799 1.76307077 3.87705446 2.99053839 4.9453125 6.1953125 C3.20507812 6.23398438 3.20507812 6.23398438 1.4296875 6.2734375 C-12.98607514 6.73302117 -23.68342872 9.97554445 -36.0234375 17.390625 C-38.33865914 18.76901727 -40.62448253 20.03977386 -43.0546875 21.1953125 C-33.55491951 9.05672006 -16.85452519 -6.60082165 0 0 Z " fill="#DC99B5" transform="translate(343.0546875,244.8046875)"/>
<path d="M0 0 C0.33 0 0.66 0 1 0 C0.39700836 7.23589973 -1.1150587 13.99370876 -3 21 C-3.99 20.34 -4.98 19.68 -6 19 C-5.39124245 14.39583374 -4.15277044 10.43516676 -2.4375 6.125 C-1.75494141 4.39636719 -1.75494141 4.39636719 -1.05859375 2.6328125 C-0.70925781 1.76398438 -0.35992187 0.89515625 0 0 Z " fill="#DD43C4" transform="translate(319,189)"/>
<path d="M0 0 C0.90901939 3.04842865 1.06173367 5.59661636 0.87890625 8.765625 C0.83056641 9.65507812 0.78222656 10.54453125 0.73242188 11.4609375 C0.64831055 12.84152344 0.64831055 12.84152344 0.5625 14.25 C0.51029297 15.18585938 0.45808594 16.12171875 0.40429688 17.0859375 C0.27493175 19.39098887 0.13997966 21.69557289 0 24 C-0.33 24 -0.66 24 -1 24 C-1.33 20.04 -1.66 16.08 -2 12 C-2.33 12 -2.66 12 -3 12 C-2.88541307 10.56163249 -2.75790884 9.12429034 -2.625 7.6875 C-2.55539062 6.88699219 -2.48578125 6.08648437 -2.4140625 5.26171875 C-2 3 -2 3 0 0 Z " fill="#1E378A" transform="translate(283,156)"/>
<path d="M0 0 C1.78016355 2.67024533 2.97163019 5.05030861 4.1875 8 C4.55230469 8.86625 4.91710937 9.7325 5.29296875 10.625 C6 13 6 13 5 16 C5 15.34 5 14.68 5 14 C4.01 14.33 3.02 14.66 2 15 C0.73694665 9.92523206 -0.27036084 5.27203646 0 0 Z " fill="#DE41C6" transform="translate(224,161)"/>
<path d="M0 0 C4.47238653 1.41807378 8.71146306 3.11304374 13 5 C13 6.32 13 7.64 13 9 C7.97290493 7.42903279 3.97133531 4.38006951 0 1 C0 0.67 0 0.34 0 0 Z " fill="#175465" transform="translate(150,270)"/>
<path d="M0 0 C1.65 0 3.3 0 5 0 C4.01 3.3 3.02 6.6 2 10 C1.01 10 0.02 10 -1 10 C-1 6.30581799 0.28179295 4.22163822 2 1 C1.34 0.67 0.68 0.34 0 0 Z " fill="#054896" transform="translate(236,382)"/>
<path d="M0 0 C1.32 0.66 2.64 1.32 4 2 C-0.455 4.97 -0.455 4.97 -5 8 C-5.66 7.67 -6.32 7.34 -7 7 C-4.69 4.69 -2.38 2.38 0 0 Z " fill="#C96CBC" transform="translate(307,258)"/>
<path d="M0 0 C0.33 0 0.66 0 1 0 C0.85764543 1.72945653 0.71095618 3.45855654 0.5625 5.1875 C0.48128906 6.15042969 0.40007812 7.11335937 0.31640625 8.10546875 C0.02333849 10.78649602 -0.42703754 13.3662986 -1 16 C-1.33 16 -1.66 16 -2 16 C-2.05402274 13.89611431 -2.09280256 11.79183286 -2.125 9.6875 C-2.14820313 8.51574219 -2.17140625 7.34398437 -2.1953125 6.13671875 C-2 3 -2 3 0 0 Z " fill="#EBBD65" transform="translate(331,121)"/>
<path d="M0 0 C0 3.39593478 -0.52165948 4.06619881 -2.5 6.6875 C-2.9640625 7.31011719 -3.428125 7.93273437 -3.90625 8.57421875 C-4.2671875 9.04472656 -4.628125 9.51523438 -5 10 C-5.66 9.67 -6.32 9.34 -7 9 C-5.44499019 5.18315774 -2.96404505 2.80804268 0 0 Z " fill="#325471" transform="translate(330,121)"/>
<path d="M0 0 C-0.33 0.66 -0.66 1.32 -1 2 C-4.47325181 3.1577506 -7.36067448 3.06866652 -11 3 C-8.15930939 0.15930939 -3.81147953 -1.90573977 0 0 Z " fill="#054C8A" transform="translate(182,430)"/>
<path d="M0 0 C0.33 0.66 0.66 1.32 1 2 C1.66 2.33 2.32 2.66 3 3 C1.02 5.97 1.02 5.97 -1 9 C-1.66 8.67 -2.32 8.34 -3 8 C-2.01 5.36 -1.02 2.72 0 0 Z " fill="#04508C" transform="translate(263,415)"/>
<path d="M0 0 C0 2.64 0 5.28 0 8 C-0.99 7.34 -1.98 6.68 -3 6 C-3.1875 3.375 -3.1875 3.375 -3 1 C-1 0 -1 0 0 0 Z " fill="#054B93" transform="translate(257,379)"/>
<path d="M0 0 C4.75 0.875 4.75 0.875 7 2 C7 2.66 7 3.32 7 4 C5.68 4.33 4.36 4.66 3 5 C2.01 3.35 1.02 1.7 0 0 Z " fill="#7BAC49" transform="translate(258,232)"/>
</svg>
